<?xml version="1.0" standalone="no"?>
<!DOCTYPE svg PUBLIC "-//W3C//DTD SVG 20010904//EN"
 "http://www.w3.org/TR/2001/REC-SVG-20010904/DTD/svg10.dtd">
<svg version="1.0" xmlns="http://www.w3.org/2000/svg"
 width="500.000000pt" height="500.000000pt" viewBox="0 0 500.000000 500.000000"
 preserveAspectRatio="xMidYMid meet">
<metadata>
Created by potrace 1.11, written by Peter Selinger 2001-2013
</metadata>
<g transform="translate(0.000000,500.000000) scale(0.100000,-0.100000)"
fill="#000000" stroke="none">
<path d="M3155 4699 c-511 -132 -935 -245 -941 -252 -6 -7 -152 -237 -324
-512 -172 -275 -318 -506 -325 -514 -11 -11 -22 -6 -65 28 -84 66 -88 52 -11
-43 l39 -50 -35 -55 c-161 -251 -263 -422 -263 -440 0 -21 12 -37 154 -195
l80 -88 3 -90 3 -90 -208 -351 c-114 -193 -210 -361 -214 -374 -8 -28 3 -42
145 -195 l108 -117 -250 -418 c-137 -230 -255 -430 -262 -445 -10 -23 -9 -31
4 -50 31 -45 330 -373 351 -384 12 -7 29 -8 41 -4 11 5 400 339 865 742 913
792 880 760 829 814 -12 13 -21 25 -18 27 2 2 22 14 44 27 22 13 65 42 96 65
l55 42 173 -134 c95 -74 177 -133 183 -131 5 2 -49 78 -119 168 -71 91 -132
170 -136 177 -5 7 11 38 39 75 103 140 170 321 181 488 l6 95 144 182 c97 123
143 189 143 206 0 17 -26 53 -87 118 -49 52 -96 104 -106 116 -18 21 -14 26
532 689 317 383 551 676 551 687 0 13 -76 97 -202 223 -189 191 -204 204 -237
203 -20 0 -454 -108 -966 -240z m-513 -1283 c126 -30 272 -104 389 -195 l25
-20 147 114 c81 63 147 113 147 110 0 -3 -50 -69 -110 -146 -61 -78 -109 -148
-106 -155 2 -6 25 -38 49 -70 116 -153 179 -348 179 -554 0 -206 -63 -401
-179 -554 -24 -32 -47 -64 -49 -71 -3 -7 43 -75 101 -150 59 -75 105 -138 103
-140 -2 -1 -66 46 -142 106 l-140 108 -25 -20 c-118 -92 -264 -165 -395 -197
-106 -25 -344 -22 -449 6 -105 29 -226 87 -319 155 l-77 55 -141 -110 c-78
-60 -143 -108 -144 -107 -2 2 39 58 91 124 141 180 132 156 85 218 -137 179
-195 353 -195 582 1 107 5 147 26 227 31 117 89 239 158 330 31 43 47 72 43
80 -5 7 -54 73 -111 146 -56 72 -101 132 -98 132 3 0 68 -49 145 -109 l140
-110 78 56 c125 90 243 142 380 168 97 18 301 14 394 -9z m-797 -1994 c-157
-139 -768 -663 -770 -660 -1 2 73 129 166 283 92 154 169 284 171 288 2 5 96
28 208 52 227 47 238 49 225 37z"/>
<path d="M2335 3340 c-92 -10 -184 -36 -270 -76 -72 -34 -185 -109 -185 -123
0 -9 383 -309 405 -317 9 -4 31 50 77 188 l65 193 64 -193 c39 -119 68 -191
75 -188 19 7 404 309 404 317 0 27 -194 135 -304 168 -56 17 -234 45 -256 39
-3 0 -36 -4 -75 -8z"/>
<path d="M1745 3003 c-47 -62 -119 -210 -141 -293 -25 -91 -25 -329 -1 -420
22 -82 107 -253 150 -303 l32 -39 154 198 c85 109 154 205 155 213 1 11 -53
32 -189 76 l-190 62 190 63 c105 34 193 65 197 69 5 5 -274 376 -311 414 -5 5
-25 -13 -46 -40z"/>
<path d="M2908 2853 c-85 -109 -157 -203 -161 -210 -5 -8 50 -31 189 -76 l197
-64 -189 -63 c-104 -34 -192 -65 -196 -69 -6 -6 263 -365 306 -409 11 -12 21
-3 60 51 56 78 98 169 128 274 18 63 22 103 22 213 0 149 -16 230 -74 356 -25
57 -114 194 -125 194 -2 0 -72 -89 -157 -197z m302 -610 c-24 -74 -76 -176
-118 -231 l-26 -34 -28 32 c-15 18 -24 38 -20 45 17 29 207 263 211 260 1 -2
-7 -34 -19 -72z"/>
<path d="M2081 2024 c-110 -86 -201 -160 -201 -165 0 -13 111 -88 179 -121
234 -112 512 -109 746 9 81 41 167 101 163 114 -4 11 -400 319 -410 319 -3 0
-35 -85 -69 -189 -35 -104 -66 -188 -69 -186 -3 2 -33 87 -65 189 -32 102 -62
186 -66 186 -4 0 -97 -70 -208 -156z m856 -161 c4 -12 -25 -35 -105 -82 -59
-35 -59 -33 11 57 46 59 51 62 70 49 12 -8 22 -18 24 -24z"/>
</g>
</svg>
