<svg width="33" height="33" viewBox="0 0 33 33" fill="none" xmlns="http://www.w3.org/2000/svg">
  <circle cx="16.5" cy="16.5" r="10.5" fill="black" />
  <mask id="path-2-inside-1" fill="white">
    <path fill-rule="evenodd" clip-rule="evenodd"
      d="M22.914 15.0112L33 0L17.9888 10.086L17.1914 6.0224C16.9628 6.00754 16.7323 6 16.5 6C16.2677 6 16.0372 6.00754 15.8086 6.0224L15.0112 10.086L0 0L10.086 15.0112L6.0224 15.8086C6.00754 16.0372 6 16.2677 6 16.5C6 16.7323 6.00754 16.9628 6.0224 17.1914L10.086 17.9888L0 33L15.0112 22.914L15.8086 26.9776C16.0372 26.9925 16.2677 27 16.5 27C16.7323 27 16.9628 26.9925 17.1914 26.9776L17.9888 22.914L33 33L22.914 17.9888L26.9776 17.1914C26.9925 16.9628 27 16.7323 27 16.5C27 16.2677 26.9925 16.0372 26.9776 15.8086L22.914 15.0112Z" />
  </mask>
  <path fill-rule="evenodd" clip-rule="evenodd"
    d="M22.914 15.0112L33 0L17.9888 10.086L17.1914 6.0224C16.9628 6.00754 16.7323 6 16.5 6C16.2677 6 16.0372 6.00754 15.8086 6.0224L15.0112 10.086L0 0L10.086 15.0112L6.0224 15.8086C6.00754 16.0372 6 16.2677 6 16.5C6 16.7323 6.00754 16.9628 6.0224 17.1914L10.086 17.9888L0 33L15.0112 22.914L15.8086 26.9776C16.0372 26.9925 16.2677 27 16.5 27C16.7323 27 16.9628 26.9925 17.1914 26.9776L17.9888 22.914L33 33L22.914 17.9888L26.9776 17.1914C26.9925 16.9628 27 16.7323 27 16.5C27 16.2677 26.9925 16.0372 26.9776 15.8086L22.914 15.0112Z"
    fill="white" />
  <path
    d="M33 0L33.83 0.557705L32.4423 -0.830039L33 0ZM22.914 15.0112L22.0839 14.4535L21.2446 15.7026L22.7214 15.9924L22.914 15.0112ZM17.9888 10.086L17.0076 10.2786L17.2974 11.7554L18.5465 10.9161L17.9888 10.086ZM17.1914 6.0224L18.1727 5.82983L18.0244 5.07444L17.2563 5.02451L17.1914 6.0224ZM15.8086 6.0224L15.7438 5.02451L14.9756 5.07444L14.8273 5.82983L15.8086 6.0224ZM15.0112 10.086L14.4535 10.9161L15.7026 11.7554L15.9924 10.2786L15.0112 10.086ZM0 0L0.557705 -0.830039L-0.830039 0.557705L0 0ZM10.086 15.0112L10.2786 15.9924L11.7554 15.7026L10.9161 14.4535L10.086 15.0112ZM6.0224 15.8086L5.82983 14.8273L5.07444 14.9756L5.02451 15.7438L6.0224 15.8086ZM6.0224 17.1914L5.02451 17.2562L5.07444 18.0244L5.82983 18.1727L6.0224 17.1914ZM10.086 17.9888L10.9161 18.5465L11.7554 17.2974L10.2786 17.0076L10.086 17.9888ZM0 33L-0.830039 32.4423L0.557705 33.83L0 33ZM15.0112 22.914L15.9924 22.7214L15.7026 21.2446L14.4535 22.0839L15.0112 22.914ZM15.8086 26.9776L14.8273 27.1702L14.9756 27.9256L15.7438 27.9755L15.8086 26.9776ZM17.1914 26.9776L17.2563 27.9755L18.0244 27.9256L18.1727 27.1702L17.1914 26.9776ZM17.9888 22.914L18.5465 22.0839L17.2974 21.2446L17.0076 22.7214L17.9888 22.914ZM33 33L32.4423 33.83L33.83 32.4423L33 33ZM22.914 17.9888L22.7214 17.0076L21.2446 17.2974L22.0839 18.5465L22.914 17.9888ZM26.9776 17.1914L27.1702 18.1727L27.9256 18.0244L27.9755 17.2563L26.9776 17.1914ZM26.9776 15.8086L27.9755 15.7437L27.9256 14.9756L27.1702 14.8273L26.9776 15.8086ZM32.17 -0.557705L22.0839 14.4535L23.744 15.5689L33.83 0.557705L32.17 -0.557705ZM18.5465 10.9161L33.5577 0.830039L32.4423 -0.830039L17.4311 9.256L18.5465 10.9161ZM16.2101 6.21497L17.0076 10.2786L18.9701 9.89347L18.1727 5.82983L16.2101 6.21497ZM16.5 7C16.7106 7 16.9196 7.00684 17.1265 7.02029L17.2563 5.02451C17.0061 5.00825 16.754 5 16.5 5V7ZM15.8735 7.02029C16.0805 7.00684 16.2894 7 16.5 7V5C16.246 5 15.9939 5.00825 15.7438 5.02451L15.8735 7.02029ZM15.9924 10.2786L16.7899 6.21497L14.8273 5.82983L14.0299 9.89347L15.9924 10.2786ZM-0.557705 0.830039L14.4535 10.9161L15.5689 9.256L0.557705 -0.830039L-0.557705 0.830039ZM10.9161 14.4535L0.830039 -0.557705L-0.830039 0.557705L9.256 15.5689L10.9161 14.4535ZM6.21497 16.7899L10.2786 15.9924L9.89347 14.0299L5.82983 14.8273L6.21497 16.7899ZM7 16.5C7 16.2894 7.00684 16.0804 7.02029 15.8735L5.02451 15.7438C5.00825 15.9939 5 16.246 5 16.5H7ZM7.02029 17.1265C7.00684 16.9196 7 16.7106 7 16.5H5C5 16.754 5.00825 17.0061 5.02451 17.2562L7.02029 17.1265ZM10.2786 17.0076L6.21497 16.2101L5.82983 18.1727L9.89347 18.9701L10.2786 17.0076ZM0.830039 33.5577L10.9161 18.5465L9.256 17.4311L-0.830039 32.4423L0.830039 33.5577ZM14.4535 22.0839L-0.557705 32.17L0.557705 33.83L15.5689 23.744L14.4535 22.0839ZM16.7899 26.785L15.9924 22.7214L14.0299 23.1065L14.8273 27.1702L16.7899 26.785ZM16.5 26C16.2894 26 16.0805 25.9932 15.8735 25.9797L15.7438 27.9755C15.9939 27.9918 16.246 28 16.5 28V26ZM17.1265 25.9797C16.9196 25.9932 16.7106 26 16.5 26V28C16.754 28 17.0061 27.9918 17.2563 27.9755L17.1265 25.9797ZM17.0076 22.7214L16.2101 26.785L18.1727 27.1702L18.9701 23.1065L17.0076 22.7214ZM33.5577 32.17L18.5465 22.0839L17.4311 23.744L32.4423 33.83L33.5577 32.17ZM22.0839 18.5465L32.17 33.5577L33.83 32.4423L23.744 17.4311L22.0839 18.5465ZM26.785 16.2101L22.7214 17.0076L23.1065 18.9701L27.1702 18.1727L26.785 16.2101ZM26 16.5C26 16.7106 25.9932 16.9196 25.9797 17.1265L27.9755 17.2563C27.9918 17.0061 28 16.754 28 16.5H26ZM25.9797 15.8735C25.9932 16.0804 26 16.2894 26 16.5H28C28 16.246 27.9918 15.9939 27.9755 15.7437L25.9797 15.8735ZM22.7214 15.9924L26.785 16.7899L27.1702 14.8273L23.1065 14.0299L22.7214 15.9924Z"
    fill="black" mask="url(#path-2-inside-1)" />
</svg>