<svg width="58" height="71" viewBox="0 0 58 71" fill="none" xmlns="http://www.w3.org/2000/svg">
  <path
    d="M33.1699 18.2776L25.7417 15.1436M33.1699 18.2776L41.8301 23.2776M33.1699 18.2776L44 9.51923M33.1699 18.2776L16.1699 47.7224M25.7417 15.1436L9.74167 42.8564M25.7417 15.1436L44 9.51923M9.74167 42.8564L16.1699 47.7224M9.74167 42.8564L14 61.4807M16.1699 47.7224L24.8301 52.7224M16.1699 47.7224L14 61.4807M24.8301 52.7224L32.2583 55.8564M24.8301 52.7224L14 61.4807M24.8301 52.7224L41.8301 23.2776M32.2583 55.8564L48.2583 28.1436M32.2583 55.8564L14 61.4807M48.2583 28.1436L41.8301 23.2776M48.2583 28.1436L44 9.51923M41.8301 23.2776L44 9.51923"
    stroke="black" stroke-width="3" />
</svg>