<svg width="21" height="19" viewBox="0 0 21 19" fill="none" xmlns="http://www.w3.org/2000/svg">
  <path fill-rule="evenodd" clip-rule="evenodd"
    d="M0 0V2C0 3.65686 1.34315 5 3 5H9V7H3L2.5 7.5L2 8V10L2.5 10.5L3 11H9V14H3C1.34315 14 0 15.3431 0 17V19H1C1 17.8954 1.89543 17 3 17H18C19.1046 17 20 17.8954 20 19H21V17C21 15.3431 19.6569 14 18 14H12V11H18L18.5 10.5L19 10V8L18.5 7.5L18 7H12V5H18C19.6569 5 21 3.65686 21 2V0H20C20 1.10458 19.1046 2 18 2H3C1.89543 2 1 1.10458 1 0H0Z"
    fill="black" />
</svg>