<?xml version="1.0" encoding="UTF-8" standalone="no"?><!DOCTYPE svg PUBLIC "-//W3C//DTD SVG 1.1//EN" "http://www.w3.org/Graphics/SVG/1.1/DTD/svg11.dtd"><svg width="100%" height="100%" viewBox="0 0 1629 1197" version="1.1" xmlns="http://www.w3.org/2000/svg" xmlns:xlink="http://www.w3.org/1999/xlink" xml:space="preserve" xmlns:serif="http://www.serif.com/" style="fill-rule:evenodd;clip-rule:evenodd;stroke-linecap:round;stroke-linejoin:round;stroke-miterlimit:1.5;"><path d="M298.695,40.234c387.148,-55.824 1022.87,-19.409 1027.89,-1.732l284.512,288.766l6.659,539.175l-284.188,287.886c-346.51,40.818 -691.425,43.16 -1034.45,0l-288.319,-287.625l-0.385,-539.917l288.278,-286.553" style="fill:#777;stroke:#000;stroke-width:20.83px;"/><path d="M430.664,25.327c257.203,-22.308 569.514,-15.918 749.249,-4.52c187.528,121.756 311.688,333.065 311.688,573.144c0,242.189 -126.353,455.101 -316.691,576.362c-245.329,20.494 -489.861,21.104 -733.432,-0.677c-189.75,-121.38 -315.631,-333.948 -315.631,-575.685c0,-237.14 121.138,-446.209 304.817,-568.624Z" style="fill:#777;stroke:#000;stroke-width:20.83px;"/><g><path d="M279.428,944.957c82.585,81.233 193.615,143.277 320.919,176.41l0.107,0c-205.881,-84.024 -351.127,-286.315 -351.127,-522.262c0,-270.541 191.418,-496.914 445.786,-551.407l-0.01,0.001c-166.964,25.585 -312.569,103.975 -415.258,205.139c23.339,-65.582 53.098,-126.21 88.171,-180.388c-148.223,125.305 -242.169,312.402 -242.169,521.501c0,202.245 88.11,384.073 228.006,509.158c-29.266,-48.469 -54.297,-101.468 -74.453,-158.152" style="fill:#1a202c;stroke:#000;stroke-width:20.83px;"/><path d="M1338.02,944.957c-82.585,81.233 -193.614,143.277 -320.918,176.41l-0.108,0c205.882,-84.024 351.128,-286.315 351.128,-522.262c0,-270.541 -191.419,-496.914 -445.787,-551.407l0.01,0.001c166.965,25.585 312.569,103.975 415.259,205.139c-23.34,-65.582 -53.099,-126.21 -88.171,-180.388c148.223,125.305 242.169,312.402 242.169,521.501c0,202.245 -88.111,384.073 -228.007,509.158c29.266,-48.469 54.297,-101.468 74.453,-158.152" style="fill:#1a202c;stroke:#000;stroke-width:20.83px;"/></g><circle cx="813.147" cy="599.105" r="504.267" style="fill:#e53e3e;stroke:#000;stroke-width:20.83px;"/><path d="M10.417,599.105l28.969,0l97.191,121.899l22.096,0l149.452,-229.954l28.825,0l123.327,107.072l24.963,0" style="fill:none;stroke:#000;stroke-width:20.83px;"/><path d="M1617.76,599.105l-28.969,0l-97.191,121.899l-22.096,0l-149.451,-229.954l-28.825,0l-123.328,107.072l-24.963,0" style="fill:none;stroke:#000;stroke-width:20.83px;"/><circle cx="813.147" cy="599.105" r="329.791" style="fill:#777;stroke:#000;stroke-width:20.83px;"/><circle cx="813.147" cy="599.105" r="293.031" style="fill:#6e5700;stroke:#000;stroke-width:20.83px;"/><g><path d="M725.283,607.436c1.782,18.052 9.308,34.424 20.711,47.275l-24.957,32.093l32.093,-24.957c14.828,13.158 34.343,21.153 55.71,21.153c13.347,0 25.97,-3.119 37.181,-8.671l3.699,4.006c0.827,0.895 1.256,2.088 1.188,3.306c-0.067,1.217 -0.626,2.355 -1.548,3.153l-148.717,128.819c-1.859,1.61 -4.666,1.431 -6.305,-0.402l-29.026,-32.451c-0.18,-0.197 -0.34,-0.407 -0.48,-0.628l-0.047,-0.076c-0.272,-0.448 -0.458,-0.931 -0.56,-1.428l-0.015,-0.08c-0.154,-0.824 -0.079,-1.691 0.244,-2.497c0.098,-0.245 0.217,-0.483 0.359,-0.71l45.165,-75.67l-21.599,-23.504l-0.115,-0.131c-0.472,-0.561 -0.785,-1.207 -0.94,-1.88l-0.03,-0.137c-0.147,-0.738 -0.108,-1.506 0.12,-2.231l0.016,-0.052c0.109,-0.334 0.258,-0.658 0.447,-0.963l37.406,-63.337Z" style="fill:#fff;"/><path d="M850.611,650.995l-12.095,15.209l0.324,0.351c-9.154,4.138 -19.314,6.409 -30,6.409c-18.137,0 -34.757,-6.542 -47.633,-17.397l35.558,-27.652l11.806,36.124l12.106,-36.223l29.934,23.179Z" style="fill:#fff;"/><path d="M752.291,551.349c-10.862,12.872 -17.413,29.503 -17.413,47.652c0,18.137 6.542,34.758 17.397,47.634l27.652,-35.558l-36.125,-11.806l36.224,-12.106l-27.735,-35.816Z" style="fill:#fff;"/><path d="M859.802,639.438l-22.147,-28.6l36.223,-12.106l-36.124,-11.806l27.652,-35.558c10.855,12.876 17.397,29.496 17.397,47.633c0,4.421 -0.389,8.752 -1.148,12.958l-21.853,27.479Z" style="fill:#fff;"/><path d="M732.146,519.964l57.776,-92.07c0.613,-0.977 1.578,-1.682 2.695,-1.968l165.581,-42.494l0.14,-0.033c0.698,-0.156 1.406,-0.14 2.072,0.026l0.141,0.038c0.572,0.162 1.119,0.44 1.602,0.832l0.398,0.365l33.149,33.561c1.622,1.644 1.739,4.248 0.27,6.03l-96.338,116.849l18.063,19.376c1.521,1.631 1.619,4.129 0.231,5.874l-25.136,31.607c-0.213,-20.958 -8.161,-40.08 -21.104,-54.666l24.957,-32.093l-32.093,24.957c-14.828,-13.157 -34.342,-21.153 -55.71,-21.153c-21.381,0 -40.907,8.006 -55.744,21.184l-20.95,-16.222Z" style="fill:#fff;"/><path d="M730.285,522.93l15.74,20.327c-11.934,13.436 -19.626,30.718 -20.904,49.748l-20.52,-23.038l-0.105,-0.122c-0.476,-0.573 -0.786,-1.233 -0.933,-1.919l-0.028,-0.141c-0.137,-0.743 -0.085,-1.514 0.157,-2.239l0.049,-0.139c0.116,-0.314 0.268,-0.617 0.454,-0.902l26.09,-41.575Z" style="fill:#fff;"/><path d="M856.474,542.436c-12.876,-10.855 -29.497,-17.397 -47.634,-17.397c-18.149,0 -34.78,6.551 -47.652,17.413l35.816,27.735l12.106,-36.224l11.806,36.125l35.558,-27.652Z" style="fill:#fff;"/><path d="M892.79,597.957l0.049,1.044c0,21.382 -8.006,40.908 -21.184,55.745l24.265,31.335l-31.335,-24.265c-5.576,4.953 -11.814,9.174 -18.564,12.513l-7.181,-7.774c6.431,-2.8 12.36,-6.538 17.653,-11.004l-5.882,-4.556l9.191,-11.557l5.588,7.216c8.216,-9.737 13.965,-21.624 16.265,-34.695l11.135,-14.002Z" style="fill:#fff;"/><path d="M730.343,598.868l-5.06,8.568c-0.299,-2.771 -0.442,-5.586 -0.442,-8.435l0.28,-5.996l5.222,5.863Z" style="fill:#fff;"/><path d="M732.146,519.964l-1.861,2.966l-8.524,-11.008l10.385,8.042Z" style="fill:#fff;"/><path d="M752.291,551.349c-10.862,12.872 -17.413,29.503 -17.413,47.652c0,18.137 6.542,34.758 17.397,47.634l27.652,-35.558l-36.125,-11.806l36.224,-12.106l-27.735,-35.816Z" style="fill:#fff;"/><path d="M856.474,542.436c-12.876,-10.855 -29.497,-17.397 -47.634,-17.397c-18.149,0 -34.78,6.551 -47.652,17.413l35.816,27.735l12.106,-36.224l11.806,36.125l35.558,-27.652Z" style="fill:#fff;"/></g></svg>