<?xml version="1.0" encoding="UTF-8" standalone="no"?><!DOCTYPE svg PUBLIC "-//W3C//DTD SVG 1.1//EN" "http://www.w3.org/Graphics/SVG/1.1/DTD/svg11.dtd"><svg width="100%" height="100%" viewBox="0 0 1178 1527" version="1.1" xmlns="http://www.w3.org/2000/svg" xmlns:xlink="http://www.w3.org/1999/xlink" xml:space="preserve" xmlns:serif="http://www.serif.com/" style="fill-rule:evenodd;clip-rule:evenodd;stroke-linejoin:round;stroke-miterlimit:2;"><g><g><path d="M486.004,1200.04l-78.427,-148.027l-222.754,60.828l-164.709,279.576l107.893,117.894l357.997,-310.271Z" style="fill:#f7fafc;"/><path d="M463.515,1200.04l-103.85,-109.465l-174.842,35.4l-80.997,-112.524l68.123,-111.84l416.766,-26.776l0,124.853l59.797,52.325l-184.997,148.027Z" style="fill:#1a202c;"/><path d="M733.379,827.215l-111.474,-112.853l-370.806,48.661l-105.897,182.148l318.313,-51.738l125.2,106.252l144.664,-172.47Z" style="fill:#d53f8c;"/><path d="M864.252,650.206l-168.019,-136.605l-365.985,67.155l-105.013,233.587l363.48,-68.911l111.948,129.4l163.589,-224.626Z" style="fill:#f6e05e;"/><path d="M171.949,645.272l79.15,100.16l61.524,-92.414l422.246,-86.157l110.251,114.899l49.166,-51.99l-78.077,-67.352l58.284,-82.725l-101.827,-126.921l-521.567,114.165l-79.15,178.335Z" style="fill:#48bb78;"/><path d="M251.099,483.107l522.462,-116.356l90.691,115.84l140.95,-161.102l-107.502,-122.321l-533.672,122.321l-112.929,161.618Z" style="fill:#3182ce;"/><path d="M360.614,324.903l533.672,-122.321l107.503,122.321l155.621,-190.274l-120.454,-113.86l-573.441,142.755l-102.901,161.379Z" style="fill:#e53e3e;"/><path d="M110.274,1027.46l66.347,78.536l57.004,-106.308l-123.351,27.772Z" style="fill:#090000;fill-opacity:0.4;"/><path d="M171.949,653.632l76.774,91.8l81.525,-128.745l-158.299,36.945Z" style="fill:#090000;fill-opacity:0.3;"/><path d="M533.583,949.352l-513.949,445.812l108.373,111.138l520.505,-453.463l-114.929,-103.487Z" style="fill:#090000;fill-opacity:0.4;"/><path d="M770.91,521.715l-331.596,427.637l101.787,-17.802l61.794,68.135l291.391,-369.915l-123.376,-108.055Z" style="fill:#090000;fill-opacity:0.3;"/><path d="M621.905,544.229l428.87,-523.46l106.635,115.902l-339.514,417.878l-36.042,-32.834l-159.949,22.514Z" style="fill:#090000;fill-opacity:0.2;"/><path d="M1040.68,0.382c2.47,-0.551 4.974,-0.495 7.329,0.095l0.024,0.006l0.175,0.044l0.031,0.009l0.166,0.045l0.103,0.029c2.025,0.574 3.958,1.556 5.667,2.945l0.1,0.081l0.112,0.093l0.038,0.032l0.159,0.136l0.076,0.067l0.089,0.08c0.287,0.255 0.565,0.521 0.834,0.799l117.254,118.717c5.74,5.812 6.154,15.024 0.957,21.327l-340.773,413.323l63.896,68.539c5.378,5.769 5.725,14.605 0.816,20.778l-280.895,353.209l39.634,42.908c2.926,3.168 4.443,7.388 4.203,11.694c-0.24,4.306 -2.216,8.331 -5.476,11.155l-526.051,455.663c-6.575,5.696 -16.503,5.063 -22.303,-1.421l-102.67,-114.787c-0.637,-0.696 -1.204,-1.439 -1.698,-2.22l-0.047,-0.074l-0.062,-0.1l-0.031,-0.049l-0.028,-0.047c-0.962,-1.585 -1.62,-3.295 -1.978,-5.05l-0.019,-0.092l-0.023,-0.118l-0.013,-0.073c-0.545,-2.916 -0.277,-5.982 0.864,-8.834c0.345,-0.866 0.768,-1.707 1.27,-2.512l159.759,-267.663l-76.347,-83.078l-0.055,-0.06l-0.054,-0.061l-0.029,-0.032l-0.053,-0.06l-0.059,-0.066l-0.018,-0.021c-0.054,-0.062 -0.108,-0.125 -0.161,-0.187l-0.032,-0.038c-1.67,-1.983 -2.776,-4.268 -3.326,-6.651l-0.014,-0.059c-0.017,-0.073 -0.033,-0.146 -0.048,-0.219l-0.008,-0.036l-0.031,-0.152l-0.003,-0.019c-0.521,-2.608 -0.384,-5.324 0.423,-7.891l0.041,-0.13l0.017,-0.053c0.385,-1.182 0.912,-2.327 1.579,-3.408l150.215,-254.343l-91.002,-102.169l-0.054,-0.06l-0.159,-0.181l-0.051,-0.061l-0.06,-0.069l-0.047,-0.057l-0.035,-0.04l-0.02,-0.025c-1.682,-2.029 -2.779,-4.363 -3.302,-6.79l-0.021,-0.101l-0.045,-0.221l-0.029,-0.156l-0.003,-0.018c-0.483,-2.629 -0.3,-5.357 0.557,-7.922c0.02,-0.061 0.041,-0.122 0.062,-0.183l0.01,-0.027l0.018,-0.052l0.036,-0.103l0.047,-0.127c0.41,-1.109 0.946,-2.18 1.607,-3.189l303.235,-483.227c2.169,-3.456 5.581,-5.949 9.533,-6.963l585.701,-150.31l0.014,-0.004c0.087,-0.022 0.175,-0.044 0.263,-0.065l0.035,-0.008l0.087,-0.02l0.051,-0.011l0.046,-0.011Zm-456.679,1011.76l-45.201,-48.936l-500.204,433.439l81.544,91.167l501.769,-434.63l-37.59,-40.696c-0.108,-0.113 -0.214,-0.228 -0.318,-0.344Zm-388.541,113.362l-115.043,192.745l401.297,-347.732l-54.938,12.366c-6.577,1.48 -13.374,-1.34 -16.971,-7.042c-3.597,-5.702 -3.215,-13.05 0.953,-18.349l323.62,-411.335l-123.839,30.156c-6.627,1.614 -13.547,-1.171 -17.209,-6.926c-3.661,-5.756 -3.252,-13.203 1.017,-18.523l407.446,-507.617l-533.235,136.846l-279.536,445.462l152.618,-35.161c6.206,-1.43 12.668,0.975 16.43,6.114c3.762,5.139 4.101,12.026 0.862,17.51l-91.227,154.465c-0.1,0.178 -0.205,0.354 -0.312,0.529l-137.501,232.815l124.489,-27.418c6.206,-1.367 12.631,1.085 16.347,6.24c3.717,5.154 4.015,12.024 0.758,17.481l-75.72,126.862c-0.098,0.172 -0.2,0.343 -0.306,0.512Zm-67.449,-90.64l51.195,55.71l46.033,-77.124l-97.228,21.414Zm335.508,-92.908l72.938,-16.418l0.094,-0.021l0.115,-0.026l0.017,-0.003c2.677,-0.576 5.375,-0.441 7.871,0.3l0.065,0.019l0.094,0.028l0.047,0.015c2.012,0.622 3.921,1.651 5.596,3.08l0.021,0.018c0.069,0.059 0.138,0.118 0.206,0.179l0.031,0.027l0.066,0.06l0.039,0.034l0.04,0.037c0.378,0.344 0.741,0.707 1.086,1.089l43.12,46.683l269.291,-338.619l-63.938,-68.585c-0.093,-0.096 -0.184,-0.194 -0.273,-0.293l-23.614,-25.329l-312.912,397.725Zm-278.692,-282.741l66.389,74.536l61.411,-103.979l-127.8,29.443Zm463.689,-124.94l123.02,-29.957l0.059,-0.015c0.062,-0.015 0.124,-0.03 0.187,-0.044l0.171,-0.039c0.08,-0.018 0.161,-0.035 0.242,-0.051l0.062,-0.014l0.115,-0.022c2.48,-0.482 4.983,-0.359 7.324,0.297l0.044,0.012l0.067,0.019l0.076,0.022l0.025,0.007c0.089,0.026 0.177,0.053 0.265,0.081l0.002,0c2.08,0.65 4.05,1.734 5.764,3.248l0.029,0.025l0.071,0.064l0.095,0.086l0.063,0.057l0.101,0.094l0.052,0.05c0.266,0.251 0.524,0.512 0.773,0.782l23.986,25.73l328.955,-398.989l-94.689,-95.871l-396.859,494.428Z"/></g><path d="M734.167,565.963c46.541,52.449 74.823,121.478 74.823,197.06c0,75.631 -28.319,144.7 -74.932,197.182l85.829,110.839l-110.839,-85.828c-52.482,46.612 -121.551,74.931 -197.182,74.931c-75.582,0 -144.611,-28.282 -197.061,-74.822l-113.521,88.279l88.28,-113.521c-46.541,-52.45 -74.823,-121.478 -74.823,-197.06c0,-75.631 28.319,-144.7 74.932,-197.183l-85.828,-110.838l110.838,85.828c52.483,-46.613 121.552,-74.932 197.183,-74.932c75.582,0 144.61,28.282 197.06,74.823l113.521,-88.28l-88.28,113.522Zm-53.742,397.088l-126.691,-98.104l-42.821,128.131l-41.761,-127.781l-125.778,97.811c45.545,38.398 104.337,61.539 168.492,61.539c64.197,0 123.026,-23.173 168.559,-61.596Zm31.526,-368.52l-97.811,125.778l127.781,41.762l-128.131,42.82l98.104,126.691c38.423,-45.533 61.596,-104.362 61.596,-168.559c0,-64.155 -23.142,-122.947 -61.539,-168.492Zm-400.114,-0.068c-38.423,45.534 -61.596,104.362 -61.596,168.56c0,64.154 23.142,122.946 61.539,168.491l97.811,-125.778l-127.78,-41.761l128.13,-42.821l-98.104,-126.691Zm368.52,-31.526c-45.545,-38.397 -104.337,-61.539 -168.491,-61.539c-64.198,0 -123.026,23.173 -168.56,61.596l126.691,98.104l42.821,-128.13l41.761,127.78l125.778,-97.811Z" style="fill:#fff;stroke:#000;stroke-width:3.12px;"/></g></svg>