<?xml version="1.0" encoding="UTF-8" standalone="no"?><!DOCTYPE svg PUBLIC "-//W3C//DTD SVG 1.1//EN" "http://www.w3.org/Graphics/SVG/1.1/DTD/svg11.dtd"><svg width="100%" height="100%" viewBox="0 0 1257 1614" version="1.1" xmlns="http://www.w3.org/2000/svg" xmlns:xlink="http://www.w3.org/1999/xlink" xml:space="preserve" xmlns:serif="http://www.serif.com/" style="fill-rule:evenodd;clip-rule:evenodd;stroke-linejoin:round;stroke-miterlimit:2;"><path d="M1256.58,98.758c0,-54.506 -44.252,-98.758 -98.758,-98.758l-1075.57,0l0,1613.49l1075.57,0c54.506,0 98.758,-44.252 98.758,-98.758l0,-1415.97Z" style="fill:#777;"/><g><path d="M491.885,824.32c3.713,37.619 19.397,71.737 43.161,98.518l-52.009,66.879l66.88,-52.008c30.9,27.418 71.567,44.081 116.095,44.081c27.812,0 54.119,-6.501 77.481,-18.07l7.709,8.347c1.724,1.866 2.618,4.352 2.476,6.889c-0.141,2.537 -1.305,4.908 -3.225,6.572l-309.916,268.448c-3.874,3.355 -9.723,2.982 -13.14,-0.837l-60.486,-67.626c-0.376,-0.41 -0.71,-0.848 -1.001,-1.308l-0.099,-0.159c-0.566,-0.933 -0.954,-1.941 -1.165,-2.975l-0.033,-0.167c-0.321,-1.718 -0.163,-3.524 0.51,-5.204c0.203,-0.51 0.452,-1.006 0.747,-1.48l94.121,-157.69l-45.011,-48.98l-0.24,-0.274c-0.984,-1.168 -1.635,-2.514 -1.959,-3.918l-0.062,-0.285c-0.307,-1.537 -0.226,-3.137 0.249,-4.65l0.035,-0.107c0.227,-0.697 0.537,-1.371 0.93,-2.008l77.952,-131.988Z" style="fill:#fff;"/><path d="M753.058,915.094l-25.205,31.694l0.675,0.731c-19.075,8.623 -40.247,13.356 -62.516,13.356c-37.796,0 -72.432,-13.634 -99.265,-36.255l74.101,-57.624l24.603,75.28l25.227,-75.486l62.38,48.304Z" style="fill:#fff;"/><path d="M548.168,707.438c-22.637,26.826 -36.289,61.483 -36.289,99.305c0,37.795 13.634,72.432 36.255,99.264l57.624,-74.1l-75.28,-24.603l75.487,-25.228l-57.797,-74.638Z" style="fill:#fff;"/><path d="M772.211,891.01l-46.152,-59.601l75.487,-25.227l-75.281,-24.604l57.625,-74.1c22.621,26.832 36.254,61.469 36.254,99.265c0,9.213 -0.81,18.238 -2.392,27.002l-45.541,57.265Z" style="fill:#fff;"/><path d="M506.187,642.034l120.4,-191.866c1.278,-2.036 3.288,-3.504 5.616,-4.101l345.058,-88.554l0.292,-0.07c1.455,-0.324 2.931,-0.291 4.318,0.056l0.294,0.078c1.193,0.338 2.332,0.917 3.339,1.735l0.829,0.759l69.079,69.941c3.382,3.424 3.625,8.851 0.564,12.564l-200.762,243.504l37.643,40.379c3.169,3.398 3.373,8.604 0.481,12.241l-52.381,65.865c-0.444,-43.674 -17.007,-83.521 -43.979,-113.918l52.009,-66.879l-66.88,52.008c-30.9,-27.418 -71.567,-44.08 -116.095,-44.08c-44.557,0 -85.248,16.683 -116.168,44.145l-43.657,-33.807Z" style="fill:#fff;"/><path d="M502.308,648.215l32.802,42.36c-24.869,28.001 -40.899,64.015 -43.562,103.673l-42.762,-48.01l-0.219,-0.254c-0.992,-1.196 -1.638,-2.571 -1.946,-4.001l-0.058,-0.292c-0.284,-1.549 -0.176,-3.156 0.329,-4.667l0.102,-0.29c0.241,-0.654 0.557,-1.284 0.946,-1.879l54.368,-86.64Z" style="fill:#fff;"/><path d="M765.276,688.865c-26.832,-22.621 -61.468,-36.255 -99.264,-36.255c-37.821,0 -72.479,13.652 -99.305,36.289l74.639,57.796l25.227,-75.486l24.603,75.28l74.1,-57.624Z" style="fill:#fff;"/><path d="M840.957,804.565l0.102,2.178c0,44.557 -16.684,85.248 -44.145,116.167l50.564,65.299l-65.299,-50.565c-11.619,10.32 -24.619,19.118 -38.686,26.076l-14.965,-16.201c13.403,-5.835 25.758,-13.624 36.789,-22.932l-12.259,-9.493l19.153,-24.084l11.645,15.037c17.122,-20.291 29.104,-45.063 33.896,-72.302l23.205,-29.18Z" style="fill:#fff;"/><path d="M502.43,806.465l-10.545,17.855c-0.624,-5.775 -0.92,-11.642 -0.92,-17.577l0.583,-12.495l10.882,12.217Z" style="fill:#fff;"/><path d="M506.187,642.034l-3.879,6.181l-17.763,-22.939l21.642,16.758Z" style="fill:#fff;"/><path d="M548.168,707.438c-22.637,26.826 -36.289,61.483 -36.289,99.305c0,37.795 13.634,72.432 36.255,99.264l57.624,-74.1l-75.28,-24.603l75.487,-25.228l-57.797,-74.638Z" style="fill:#fff;"/><path d="M765.276,688.865c-26.832,-22.621 -61.468,-36.255 -99.264,-36.255c-37.821,0 -72.479,13.652 -99.305,36.289l74.639,57.796l25.227,-75.486l24.603,75.28l74.1,-57.624Z" style="fill:#fff;"/></g><g><path d="M164.511,102.165c0,-10.484 -8.512,-18.995 -18.995,-18.995l-126.521,0c-10.484,0 -18.995,8.511 -18.995,18.995c0,10.484 8.511,18.995 18.995,18.995l126.521,0c10.483,0 18.995,-8.511 18.995,-18.995Z" style="fill:#777;"/><path d="M164.511,614.585c0,-10.484 -8.512,-18.995 -18.995,-18.995l-126.521,0c-10.484,0 -18.995,8.511 -18.995,18.995c0,10.484 8.511,18.995 18.995,18.995l126.521,0c10.483,0 18.995,-8.511 18.995,-18.995Z" style="fill:#777;"/><path d="M164.511,1127.01c0,-10.484 -8.512,-18.995 -18.995,-18.995l-126.521,0c-10.484,0 -18.995,8.511 -18.995,18.995c0,10.484 8.511,18.995 18.995,18.995l126.521,0c10.483,0 18.995,-8.511 18.995,-18.995Z" style="fill:#777;"/><path d="M164.511,358.375c0,-10.484 -8.512,-18.995 -18.995,-18.995l-126.521,0c-10.484,0 -18.995,8.511 -18.995,18.995c0,10.484 8.511,18.995 18.995,18.995l126.521,0c10.483,0 18.995,-8.511 18.995,-18.995Z" style="fill:#777;"/><path d="M164.511,870.795c0,-10.484 -8.512,-18.995 -18.995,-18.995l-126.521,0c-10.484,0 -18.995,8.511 -18.995,18.995c0,10.484 8.511,18.995 18.995,18.995l126.521,0c10.483,0 18.995,-8.511 18.995,-18.995Z" style="fill:#777;"/><path d="M164.511,1383.21c0,-10.483 -8.512,-18.995 -18.995,-18.995l-126.521,0c-10.484,0 -18.995,8.512 -18.995,18.995c0,10.484 8.511,18.995 18.995,18.995l126.521,0c10.483,0 18.995,-8.511 18.995,-18.995Z" style="fill:#777;"/><path d="M164.511,230.27c0,-10.484 -8.512,-18.995 -18.995,-18.995l-126.521,0c-10.484,0 -18.995,8.511 -18.995,18.995c0,10.484 8.511,18.995 18.995,18.995l126.521,0c10.483,0 18.995,-8.511 18.995,-18.995Z" style="fill:#777;"/><path d="M164.511,742.69c0,-10.484 -8.512,-18.995 -18.995,-18.995l-126.521,0c-10.484,0 -18.995,8.511 -18.995,18.995c0,10.484 8.511,18.995 18.995,18.995l126.521,0c10.483,0 18.995,-8.511 18.995,-18.995Z" style="fill:#777;"/><path d="M164.511,1255.11c0,-10.484 -8.512,-18.995 -18.995,-18.995l-126.521,0c-10.484,0 -18.995,8.511 -18.995,18.995c0,10.484 8.511,18.995 18.995,18.995l126.521,0c10.483,0 18.995,-8.511 18.995,-18.995Z" style="fill:#777;"/><path d="M164.511,486.48c0,-10.484 -8.512,-18.995 -18.995,-18.995l-126.521,0c-10.484,0 -18.995,8.511 -18.995,18.995c0,10.484 8.511,18.995 18.995,18.995l126.521,0c10.483,0 18.995,-8.511 18.995,-18.995Z" style="fill:#777;"/><path d="M164.511,998.9c0,-10.484 -8.512,-18.995 -18.995,-18.995l-126.521,0c-10.484,0 -18.995,8.511 -18.995,18.995c0,10.484 8.511,18.995 18.995,18.995l126.521,0c10.483,0 18.995,-8.511 18.995,-18.995Z" style="fill:#777;"/><path d="M164.511,1511.32c0,-10.483 -8.512,-18.995 -18.995,-18.995l-126.521,0c-10.484,0 -18.995,8.512 -18.995,18.995c0,10.484 8.511,18.995 18.995,18.995l126.521,0c10.483,0 18.995,-8.511 18.995,-18.995Z" style="fill:#777;"/></g></svg>